<svg width="1200" height="675" viewBox="0 0 1200 675" fill="none" xmlns="http://www.w3.org/2000/svg">
  <defs>
    <linearGradient id="bg" x1="0" y1="0" x2="1200" y2="675" gradientUnits="userSpaceOnUse">
      <stop stop-color="#17151C"/>
      <stop offset="1" stop-color="#211E28"/>
    </linearGradient>
    <linearGradient id="accent" x1="180" y1="110" x2="980" y2="560" gradientUnits="userSpaceOnUse">
      <stop stop-color="#D8C3FF"/>
      <stop offset="1" stop-color="#9D7CFF"/>
    </linearGradient>
  </defs>

  <rect width="1200" height="675" rx="36" fill="url(#bg)"/>

  <rect x="78" y="78" width="1044" height="519" rx="30" fill="#1C1921" stroke="#3A3542" stroke-width="2"/>

  <text x="126" y="182"
    font-family="Google Sans, Arial, sans-serif"
    font-size="72"
    font-weight="700"
    fill="#F5F0FA">
    markdown
  </text>

  <text x="126" y="252"
    font-family="Google Sans, Arial, sans-serif"
    font-size="46"
    font-weight="600"
    fill="url(#accent)">
    stress test
  </text>

  <g transform="translate(126 330)">
    <rect width="34" height="34" rx="7" fill="#CBB2FF"/>
    <path d="M9 17.5L14.5 23L25 11.5" stroke="#2A1A47" stroke-width="4" stroke-linecap="round" stroke-linejoin="round"/>

    <rect y="58" width="34" height="34" rx="7" fill="#CBB2FF"/>
    <rect x="9" y="73" width="16" height="4" rx="2" fill="#2A1A47"/>

    <rect y="116" width="34" height="34" rx="7" stroke="#807A88" stroke-width="4"/>

    <rect x="62" y="3" width="330" height="16" rx="8" fill="#EDE7F2" fill-opacity=".9"/>
    <rect x="62" y="61" width="270" height="16" rx="8" fill="#D2CBD8" fill-opacity=".75"/>
    <rect x="62" y="119" width="305" height="16" rx="8" fill="#D2CBD8" fill-opacity=".55"/>
  </g>

  <g transform="translate(620 334)">
    <text x="0" y="0"
      font-family="Google Sans, Arial, sans-serif"
      font-size="30"
      font-weight="650"
      fill="#F0EAF5">progress 67%</text>
    <rect x="0" y="34" width="372" height="18" rx="9" fill="#49444F"/>
    <rect x="0" y="34" width="249" height="18" rx="9" fill="url(#accent)"/>

    <text x="0" y="124"
      font-family="ui-monospace, SFMono-Regular, Menlo, monospace"
      font-size="25"
      fill="#BFA5FF"># H1  ## H2  ### H3</text>

    <text x="0" y="174"
      font-family="ui-monospace, SFMono-Regular, Menlo, monospace"
      font-size="23"
      fill="#CEC7D3">**bold**  *italic*  `code`</text>
  </g>
</svg>
